# xmcd CD database file
#
# Track frame offsets:
#	150
#	30983
#	55495
#	65052
#	92399
#	111754
#	128089
#	155420
#	173509
#
# Disc length: 2605 seconds
#
# Revision: 0
# Processed by: cddbd v1.5.1PL0 Copyright (c) Steve Scherf et al.
# Submitted via: CDex 1.51
#
DISCID=6a0a2b09
DTITLE=Djago&Brothers - Djago&Brothers
DYEAR=2003
DGENRE=Jazz
TTITLE0=Train to nowhere
TTITLE1=Nuages
TTITLE2=I can't give You anything but love
TTITLE3=Desafinado
TTITLE4=The man I love
TTITLE5=One note samba
TTITLE6=Karussell
TTITLE7=Out of nowhere
TTITLE8=Latin lover
EXTD=YEAR: 2003
EXTT0=
EXTT1=
EXTT2=
EXTT3=
EXTT4=
EXTT5=
EXTT6=
EXTT7=
EXTT8=
PLAYORDER=
